<svg xmlns="http://www.w3.org/2000/svg" xmlns:svg="http://www.w3.org/2000/svg" id="svg2" width="360" height="280" version="1.1"><metadata id="metadata7"/><g id="layer1" transform="translate(0,-772.36218)"><path id="path4340" fill="#008ad5" fill-opacity="1" stroke="#008ad5" stroke-linecap="butt" stroke-linejoin="miter" stroke-opacity="1" stroke-width="1" d="m 45,787.36218 -5,65 -20,0 c 23.89524,54.41719 20,135 0,165.00002 l 50,0 C 50,987.36218 44.734674,908.53731 70,852.36218 l -20,0 z"/><path id="path4342" fill="#008ad5" fill-opacity="1" stroke="#008ad5" stroke-linecap="butt" stroke-linejoin="miter" stroke-opacity="1" stroke-width="1" d="m 20,1017.3622 0,15 300,0 0,-15 z"/><path id="path4344" fill="#008ad5" fill-opacity="1" stroke="#008ad5" stroke-linecap="butt" stroke-linejoin="miter" stroke-opacity="1" stroke-width="1" d="m 80,1007.3622 0,-65.00002 25,0 0,65.00002 z"/><path id="path4348" fill="#008ad5" fill-opacity="1" stroke="#008ad5" stroke-dasharray=".253 12.144" stroke-dashoffset="0" stroke-miterlimit="4" stroke-opacity="1" stroke-width=".253" d="m 125,199.86218 a 12.5,12.5 0 1 1 -0.0286,-0.84551" transform="translate(-20,722.5)"/><path id="path4350" fill="#008ad5" fill-opacity="1" stroke="#008ad5" stroke-linecap="butt" stroke-linejoin="miter" stroke-opacity="1" stroke-width="1" d="m 120,942.36218 0,65.00002 15,0 0,-45.00002 20,0 0,45.00002 20,0 0,-65.00002 z"/><path id="path4354" fill="#008ad5" fill-opacity="1" stroke="#008ad5" stroke-linecap="butt" stroke-linejoin="miter" stroke-opacity="1" stroke-width="1" d="m 185,942.36218 15,0 0,45 20,0 0,-45 20,0 0,65.00002 -55,0 z"/><path id="path4356" fill="#f8bf00" fill-opacity="1" stroke="#f8bf00" stroke-linecap="butt" stroke-linejoin="miter" stroke-opacity="1" stroke-width="1" d="m 250,1007.3622 40,0 0,-40.00002 -40,0 z"/><path id="path4356-0" fill="#f8bf00" fill-opacity="1" stroke="#f8bf00" stroke-linecap="butt" stroke-linejoin="miter" stroke-opacity="1" stroke-width="1" d="m 300,957.36218 40,0 0,-39.99999 -40,0 z"/><path id="path4376" fill="#ffe405" fill-opacity="1" stroke="#ffe405" stroke-linecap="butt" stroke-linejoin="miter" stroke-opacity="1" stroke-width="1" d="m 250,957.36218 0,-40 40,0 0,40 z"/><path id="path4376-1" fill="#ffe405" fill-opacity="1" stroke="#ffe405" stroke-linecap="butt" stroke-linejoin="miter" stroke-opacity="1" stroke-width="1" d="m 300,1007.3622 0,-40.00002 40,0 0,40.00002 z"/><text id="text4396" x="255" y="952.362" fill="#fff9f9" fill-opacity="1" stroke="none" font-family="Sans" font-size="40" font-stretch="normal" font-style="normal" font-variant="normal" font-weight="bold" letter-spacing="0" text-anchor="start" word-spacing="0" writing-mode="lr" xml:space="preserve" style="line-height:125%;-inkscape-font-specification:Sans Bold;text-align:start"><tspan font-style="normal" style="text-align:start;line-height:125%;-inkscape-font-specification:Ubuntu Bold" id="tspan4398" x="255" y="952.362" font-family="Ubuntu" font-size="40" font-stretch="normal" font-variant="normal" font-weight="bold" text-anchor="start" writing-mode="lr">G</tspan></text><text id="text4400" x="308.214" y="952.005" fill="#fff3f3" fill-opacity="1" stroke="none" font-family="Sans" font-size="40" font-style="normal" font-weight="normal" letter-spacing="0" word-spacing="0" xml:space="preserve" style="line-height:125%"><tspan font-style="normal" style="text-align:start;line-height:125%;-inkscape-font-specification:Ubuntu Bold" id="tspan4402" x="308.214" y="952.005" font-family="Ubuntu" font-size="40" font-stretch="normal" font-variant="normal" font-weight="bold" text-anchor="start" writing-mode="lr-tb">Z</tspan></text><text id="text4404" x="256.071" y="1002.005" fill="#fff6f6" fill-opacity="1" stroke="none" font-family="Sans" font-size="40" font-style="normal" font-weight="normal" letter-spacing="0" word-spacing="0" xml:space="preserve" style="line-height:125%"><tspan font-style="normal" style="text-align:start;line-height:125%;-inkscape-font-specification:Ubuntu Bold" id="tspan4406" x="256.071" y="1002.005" font-family="Ubuntu" font-size="40" font-stretch="normal" font-variant="normal" font-weight="bold" text-anchor="start" writing-mode="lr-tb">U</tspan></text><text id="text4408" x="305" y="1002.362" fill="#fff0f0" fill-opacity="1" stroke="none" font-family="Sans" font-size="40" font-style="normal" font-weight="normal" letter-spacing="0" word-spacing="0" xml:space="preserve" style="line-height:125%"><tspan font-style="normal" style="text-align:start;line-height:125%;-inkscape-font-specification:Ubuntu Bold" id="tspan4410" x="305" y="1002.362" font-family="Ubuntu" font-size="40" font-stretch="normal" font-variant="normal" font-weight="bold" text-anchor="start" writing-mode="lr-tb">G</tspan></text></g></svg>